<svg version="1.1" xmlns="http://www.w3.org/2000/svg" xmlns:xlink="http://www.w3.org/1999/xlink" x="0px" y="0px" width="200" height="200px" viewBox="0 0 200 200" enable-background="new 0 0 200 200" xml:space="preserve">
	<defs>
		<mask id="brushMask" class="brushMove">
			<path fill="#FFFFFF" d="M63.7,12c3.8-0.1,12.3,0,12.3,0l2.5,22.5l3-22.5h30.9l1.7,21.7l1.2-21.7h4.4l1,22.5l1.5-22.5 c0,0,13,0.1,12.8,0c-5.3,15.7-3.8,43.3-3.9,55.5c0.1-0.1-63.8,0.1-63.7,0C67.5,57,65.6,19.6,63.7,12z"/>
			<path fill="#FFFFFF" d="M66.9,70.7h64.2v8.1c-2.2,1-13.9,4.9-17.8,6.7c-12.8,5.9-2.7,21.7-2.5,44.7c0.1,6.2-0.7,21.5-11.8,21.5 c-10.4,0-11.8-17.3-11.8-22.7c-0.2-20,13.1-36.8-3.7-43.4c-5.1-2-10.9-3.7-16.5-6.7C66.6,73.4,66.9,79,66.9,70.7z"/>
		</mask>
	</defs>
	<g id="brushGray" class="brushGray">
		<path fill="#2B2B2B" d="M63.7,12c3.8-0.1,12.3,0,12.3,0l2.5,22.5l3-22.5h30.9l1.7,21.7l1.2-21.7h4.4l1,22.5l1.5-22.5 c0,0,13,0.1,12.8,0c-5.3,15.7-3.8,43.3-3.9,55.5c0.1-0.1-63.8,0.1-63.7,0C67.5,57,65.6,19.6,63.7,12z"/>
		<path fill="#2B2B2B" d="M66.9,70.7h64.2v8.1c-2.2,1-13.9,4.9-17.8,6.7c-12.8,5.9-2.7,21.7-2.5,44.7c0.1,6.2-0.7,21.5-11.8,21.5 c-10.4,0-11.8-17.3-11.8-22.7c-0.2-20,13.1-36.8-3.7-43.4c-5.1-2-10.9-3.7-16.5-6.7C66.6,73.4,66.9,79,66.9,70.7z"/>
	</g>
	<g id="progress" class="progress brushMove" style="mask: url(#brushMask);">
		<rect id="progBar" class="progBar" x="59" y="10" fill="#E47125" width="78.7" height="145.7"/>
	</g>
</svg>